<svg xmlns="http://www.w3.org/2000/svg" width="200" height="38" viewBox="0 0 200 38">
    <g fill="none" fill-rule="evenodd">
        <path fill="#FAFBFB" d="M-136-20h1440v7895H-136z"/>
        <g fill="#FFF">
            <path d="M45.62 13.77h1.549v9.497h5.872v1.348h-7.422V13.77M61.663 22.818a3.977 3.977 0 0 0 1.503-1.495c.367-.635.55-1.345.55-2.13 0-.785-.183-1.496-.55-2.13a3.981 3.981 0 0 0-1.503-1.496c-.635-.361-1.35-.542-2.146-.542-.795 0-1.516.18-2.161.542a3.948 3.948 0 0 0-1.519 1.495 4.184 4.184 0 0 0-.55 2.13c0 .786.184 1.496.55 2.13a3.944 3.944 0 0 0 1.519 1.496c.645.362 1.366.542 2.161.542.796 0 1.51-.18 2.146-.542zm-5.105 1.2a5.323 5.323 0 0 1-2.068-1.99c-.502-.847-.752-1.792-.752-2.836 0-1.043.25-1.988.752-2.835.5-.847 1.19-1.51 2.068-1.99.878-.481 1.864-.721 2.959-.721 1.084 0 2.066.24 2.944.72a5.29 5.29 0 0 1 2.06 1.983c.496.842.744 1.79.744 2.843 0 1.054-.248 2.002-.743 2.843a5.287 5.287 0 0 1-2.061 1.984c-.878.48-1.86.72-2.944.72-1.095 0-2.081-.24-2.96-.72zM76.963 13.77v10.845h-1.27l-6.508-8.087v8.087h-1.55V13.77h1.271l6.507 8.087V13.77h1.55M87.73 19.13h1.488v4.23a5.766 5.766 0 0 1-1.875 1.023 7.008 7.008 0 0 1-2.23.356c-1.096 0-2.082-.24-2.96-.72a5.34 5.34 0 0 1-2.069-1.984c-.5-.841-.751-1.789-.751-2.843 0-1.053.25-2.003.751-2.85a5.26 5.26 0 0 1 2.077-1.984c.883-.474 1.877-.712 2.982-.712.868 0 1.655.142 2.363.426.707.284 1.309.7 1.805 1.247l-.96.96c-.868-.836-1.917-1.254-3.146-1.254-.826 0-1.567.178-2.223.534a3.917 3.917 0 0 0-1.542 1.488c-.372.635-.558 1.35-.558 2.145 0 .786.186 1.496.558 2.13a3.97 3.97 0 0 0 1.542 1.496c.656.362 1.392.542 2.208.542.97 0 1.817-.232 2.54-.697V19.13M100.047 23.267v1.348h-7.87V13.77h7.654v1.348h-6.105v3.33h5.438v1.318h-5.438v3.501h6.321M111.823 13.77l-4.757 10.845h-1.534L100.76 13.77h1.674l3.904 8.908 3.935-8.908h1.55M113.201 24.615h1.55V13.77h-1.55zM120.158 15.118h-3.719V13.77h8.971v1.348h-3.718v9.497h-1.534v-9.497"/>
            <path d="M131.127 20.866v3.75h-1.534v-3.781l-4.307-7.065h1.658l3.47 5.717 3.486-5.717h1.534l-4.307 7.096M148.859 15.219h-3.719V13.87h8.97v1.348h-3.717v9.497h-1.534V15.22M162.644 23.043a3.977 3.977 0 0 0 1.503-1.495c.366-.636.55-1.346.55-2.13 0-.786-.184-1.496-.55-2.13a3.98 3.98 0 0 0-1.503-1.496c-.635-.362-1.35-.543-2.146-.543-.795 0-1.516.181-2.161.543a3.947 3.947 0 0 0-1.519 1.495 4.183 4.183 0 0 0-.55 2.13c0 .785.184 1.495.55 2.13a3.944 3.944 0 0 0 1.519 1.496c.645.361 1.366.542 2.16.542.796 0 1.512-.18 2.147-.542zm-5.105 1.2a5.323 5.323 0 0 1-2.068-1.99c-.502-.847-.752-1.792-.752-2.836 0-1.043.25-1.988.752-2.835.5-.847 1.19-1.51 2.068-1.991.878-.48 1.864-.72 2.959-.72 1.084 0 2.066.24 2.944.72a5.291 5.291 0 0 1 2.06 1.983c.496.842.744 1.79.744 2.843 0 1.054-.248 2.002-.743 2.843a5.288 5.288 0 0 1-2.061 1.983c-.878.48-1.86.72-2.944.72-1.095 0-2.081-.24-2.96-.72zM172.184 19.898l-1.983 2.014v2.804h-1.55V13.871h1.55v6.058l5.888-6.058h1.766l-4.633 4.88 4.927 5.965h-1.812l-4.153-4.818M187.843 23.368v1.348h-7.871V13.871h7.654v1.348h-6.105v3.33h5.439v1.318h-5.439v3.501h6.322M199.748 13.87v10.846h-1.27l-6.507-8.087v8.087h-1.55V13.871h1.27l6.508 8.087v-8.087h1.55"/>
        </g>
        <path fill="#F2F2F2" d="M18.904 27.677a8.282 8.282 0 0 1-5.169-1.814 1.72 1.72 0 0 0 .112-.608 1.732 1.732 0 0 0-2.094-1.69 8.238 8.238 0 0 1-1.127-4.166c0-3.965 2.87-7.4 6.729-8.133.282.571.87.966 1.55.966a1.73 1.73 0 0 0 1.55-.966c3.863.732 6.728 4.158 6.728 8.133 0 4.564-3.714 8.278-8.279 8.278zm-6.787-1.928a.495.495 0 1 1 .001-.99.495.495 0 0 1 0 .99zm6.787-15.74a.495.495 0 1 1 0 .989.495.495 0 0 1 0-.99zm1.663.022a1.732 1.732 0 0 0-1.663-1.258c-.79 0-1.457.533-1.663 1.259-4.494.795-7.85 4.77-7.85 9.367 0 1.716.46 3.378 1.328 4.842a1.718 1.718 0 0 0-.331 1.014c0 .954.776 1.73 1.73 1.73.287 0 .558-.072.797-.197a9.519 9.519 0 0 0 5.99 2.125c5.245 0 9.513-4.268 9.513-9.514 0-4.608-3.35-8.573-7.85-9.368z"/>
        <path fill="#F2F2F2" d="M23.353 19.77a.495.495 0 1 1 0-.99.495.495 0 0 1 0 .99zm-4.449 3.459a3.835 3.835 0 0 1-3.83-3.83 3.835 3.835 0 0 1 3.83-3.83 3.85 3.85 0 0 1 3.494 2.265 1.728 1.728 0 0 0 .084 2.934 3.853 3.853 0 0 1-3.578 2.461zm4.724-5.66a5.091 5.091 0 0 0-4.724-3.236 5.072 5.072 0 0 0-5.065 5.066 5.072 5.072 0 0 0 5.065 5.066 5.092 5.092 0 0 0 4.815-3.5 1.732 1.732 0 0 0 1.363-1.69c0-.86-.63-1.573-1.454-1.706z"/>
        <path fill="#F2F2F2" d="M34.923 26.861a.495.495 0 1 1 0-.99.495.495 0 0 1 0 .99zm-16.39 9.712c-4.148 0-8.126-1.48-11.261-4.173.072-.19.114-.396.114-.612a1.732 1.732 0 0 0-2.296-1.633 17.296 17.296 0 0 1-3.854-10.88c0-3.296.928-6.487 2.683-9.253a1.732 1.732 0 0 0 2.107-1.687c0-.286-.07-.556-.195-.795a17.324 17.324 0 0 1 12.703-5.563c.987 0 1.974.089 2.942.254a1.728 1.728 0 1 0 3.034.809 17.32 17.32 0 0 1 11.322 16.235c0 1.837-.289 3.639-.852 5.365-.02 0-.038-.003-.057-.003-.954 0-1.73.777-1.73 1.73 0 .478.195.912.51 1.225a17.243 17.243 0 0 1-15.17 8.981zm-12.877-4.29a.495.495 0 1 1 .001-.99.495.495 0 0 1-.001.99zM4.296 7.84a.495.495 0 1 1 0 .99.495.495 0 0 1 0-.99zm18.883-6.4a.495.495 0 1 1-.001.99.495.495 0 0 1 0-.99zM36.12 25.124c.626-1.88.947-3.845.947-5.848 0-7.778-4.879-14.74-12.163-17.406A1.73 1.73 0 0 0 23.179.206c-.617 0-1.158.326-1.465.813a18.72 18.72 0 0 0-3.18-.278A18.56 18.56 0 0 0 4.908 6.72a1.716 1.716 0 0 0-.611-.114c-.954 0-1.73.776-1.73 1.73 0 .374.12.72.323 1.003A18.45 18.45 0 0 0 0 19.275c0 4.257 1.47 8.38 4.144 11.675a1.732 1.732 0 0 0 1.512 2.569c.286 0 .557-.072.795-.196a18.484 18.484 0 0 0 12.083 4.486 18.475 18.475 0 0 0 16.303-9.716c.028.001.057.004.086.004.954 0 1.73-.776 1.73-1.73 0-.488-.205-.93-.532-1.244z"/>
        <path fill="#F2F2F2" d="M26.619 29.453a1.73 1.73 0 0 0-2.599 1.06c-.04.169-.05.341-.04.512a12.726 12.726 0 0 1-5.2 1.1c-6.46 0-11.96-4.902-12.75-11.256a1.732 1.732 0 0 0 .002-3.188c.792-6.443 6.204-11.256 12.749-11.256 2.782 0 5.406.865 7.623 2.505a1.719 1.719 0 0 0 .158 1.474 1.718 1.718 0 0 0 1.479.827c.223 0 .444-.045.652-.131a12.824 12.824 0 0 1 2.938 8.175c0 4.029-1.826 7.724-5.012 10.178zm-.436 1.581a.496.496 0 0 1-.597.365.492.492 0 0 1-.334-.276.495.495 0 1 1 .93-.089zM5.359 18.781a.495.495 0 1 1-.001.99.495.495 0 0 1 .001-.99zm22.42-9.701a.49.49 0 0 1 .374-.06.492.492 0 0 1 .365.597.49.49 0 0 1-.596.365.491.491 0 0 1-.365-.596.49.49 0 0 1 .222-.306zm1.94.826c.108-.45.035-.914-.206-1.308a1.718 1.718 0 0 0-1.071-.779 1.714 1.714 0 0 0-1.238.168 14.127 14.127 0 0 0-8.423-2.798c-3.531 0-6.91 1.313-9.512 3.697a14.042 14.042 0 0 0-4.476 8.756 1.731 1.731 0 0 0-1.164 1.633c0 .755.487 1.397 1.163 1.633a14.036 14.036 0 0 0 4.421 8.705 14.041 14.041 0 0 0 9.568 3.748c1.992 0 3.909-.41 5.708-1.21a1.72 1.72 0 0 0 1.213.498c.78 0 1.491-.534 1.682-1.326.072-.302.06-.604-.022-.883a14.155 14.155 0 0 0 5.505-11.165c0-3.31-1.16-6.493-3.272-9.022.053-.11.095-.226.124-.347z"/>
    </g>
</svg>
