<svg xmlns="http://www.w3.org/2000/svg" width="116" height="116" viewBox="0 0 116 116">
    <g fill="none" fill-rule="evenodd">
        <path fill="#FAFBFB" d="M-661-3487H779v7895H-661z"/>
        <path fill="#FFF" fill-rule="nonzero" d="M58 0c32.017.036 57.964 25.983 58 58 0 32.033-25.967 58-58 58S0 90.033 0 58 25.967 0 58 0zm-2 112V87l-1.131 1.985a54.279 54.279 0 0 1-3.752 5.651A54.342 54.342 0 0 1 37 107.72 57.175 57.175 0 0 0 56 112zm5 0a57.15 57.15 0 0 0 19-4.28c-7.43-4.786-13.558-11.21-17.87-18.735L61 87v25zM16 46.047a58.142 58.142 0 0 0-7.399 11.44A58.39 58.39 0 0 0 7 61c.036-2.501.246-4.997.628-7.47.214-.493.421-.993.649-1.479A54.794 54.794 0 0 1 13.515 43 53.835 53.835 0 0 0 16 46.047zm2.106 13.427A53.825 53.825 0 0 1 23.922 54 52.599 52.599 0 0 0 28 56.884C20.452 61.943 14.276 68.862 10.045 77l-.09-.281A50.096 50.096 0 0 1 9 73.246l.173-.366a52.91 52.91 0 0 1 8.933-13.406zM37.799 52.1c-.727.282-1.453.584-2.173.899A58.326 58.326 0 0 1 30 50.034a53.222 53.222 0 0 1 5.732-2.881A52.125 52.125 0 0 1 41.675 45c.74.702 1.532 1.496 2.344 2.363.66.741 1.32 1.502 1.981 2.27a54.166 54.166 0 0 0-8.201 2.468zM74.359 45A53.869 53.869 0 0 1 86 50.025 56.15 56.15 0 0 1 80.342 53a58.579 58.579 0 0 0-2.183-.906A53.2 53.2 0 0 0 70 49.63l1.95-2.207A59.199 59.199 0 0 1 74.358 45zm28.553 20.824a52.79 52.79 0 0 1 3.915 7.02c.058.117.122.241.173.372a49.822 49.822 0 0 1-.955 3.477 3.36 3.36 0 0 1-.096.307 55.11 55.11 0 0 0-11.003-14.549l-1.864-1.686-1.923-1.589-.89-.653-1.11-.83-.531-.366-.365-.249-.263-.183A53.157 53.157 0 0 0 92.101 54a52.9 52.9 0 0 1 10.81 11.824zM44 38.672l.149-.013a35.483 35.483 0 0 1-.142-3.248v-1.84c0-.202-.014-.32 0-.613.015-.292.06-.578.06-.892V31.836c0-.097-.045-.209 0-.341.045-.133.045-.272.045-.411a.261.261 0 0 1 0-.084c.483.69.988 1.45 1.487 2.146.14.202.267.411.401.614l-.06.18c-.118.377-.252.76-.364 1.15l-.803 2.711L44.461 39 44 38.672zm27.149-.937l-.755-2.697A39.937 39.937 0 0 0 70 33.745c.125-.207.25-.422.374-.615.304-.457.609-.92.927-1.383l.581-.747v.339c.005.067.005.134 0 .2.035.29.035.685.076.906.042.221.042.443.042.65a.228.228 0 0 0 0 .062V36.497c-.007.49-.062.982-.062 1.473l-.049.691-.443.339-.297-1.265zM68.646 49l-.258-.006A47.072 47.072 0 0 0 64 48.357c.04-.184.086-.318.146-.547.06-.229.119-.452.191-.68v-.083c.1-.344.206-.688.325-1.037.053-.185.126-.382.178-.548.053-.165.086-.248.173-.502.086-.255.172-.497.264-.745l.185-.509c.087-.235.18-.464.272-.706l1.363.19.285.045.45.039.192.038c.47.076.94.165 1.402.254.808.166 1.503.318 2.164.484.146.032.298.07.45.114.298.077.642.16.96.249-.715.674-1.37 1.31-1.985 1.946l-1.708 1.858-.661.783zm-4.478 6.06a68.562 68.562 0 0 0-1.554 2.88L62 58v-.216c.037-.493.08-.973.129-1.473a.357.357 0 0 0 0-.081c.029-.32.066-.638.11-.953l.068-.513.068-.514.116-.777v-.047l.197-1.19c.037-.23.074-.445.123-.675.012-.129.055-.257.055-.365l.05-.237c.012-.094.048-.182.048-.277l.08-.371c.016-.105.038-.21.068-.311 1.296.142 2.592.351 3.888.615l-.129.176c-.16.243-.326.493-.491.736l-.222.331c-.227.358-.46.676-.681 1.034l-.473.777c-.289.46-.56.919-.836 1.392zm33.145-25.289A93.097 93.097 0 0 0 93.38 31c-.456-.364-.918-.734-1.38-1.078h.094l.143-.038.512-.113.562-.125.712-.138.262-.044.668-.125.756-.12.543-.081.443-.057.624-.081h.219c.156.194.318.395.462.583l-.687.188zm-27.875 13.15l-.09-.053-.348-.073.212-.193.515-.453.708-.606.277-.233.058-.046.457-.38.174-.14 1.1-.865.129-.093.084-.06.38-.273.186-.14 1.004-.726h.045l.566-.393c.174-.12.264-.166.528-.346.264-.18.528-.34.792-.512.264-.174.47-.293.798-.5.328-.206.656-.393.972-.579l.083-.047c.374-.246.753-.452 1.146-.665l.142-.08c.186-.107.373-.207.566-.3.386-.2.785-.393 1.178-.592.392-.2.791-.393 1.19-.573A50.92 50.92 0 0 1 85 35.578l-.425.24-.122.073-.747.44-.141.08-.367.225a.307.307 0 0 0-.077.047c-.193.113-.38.226-.56.346l-.605.38-.058.04c-.116.08-.238.146-.341.226l-.135.087c-.136.086-.27.18-.4.273l-.07.04c-.264.18-.54.38-.785.546-.245.166-.496.34-.721.512l-.097.073c-.186.127-.36.26-.553.407-.374.272-.734.559-1.094.845l-.477.373-.083.073-.078.06-.643.533-.097.073c-.225.2-.463.4-.695.6l-.605.538-.09.08-.309.28c-.148.126-.283.26-.425.393l-.572.539a72.188 72.188 0 0 0-1.642-.466l-.791-.2a51.927 51.927 0 0 0-1.757-.413zm-25.045 1.165c.654-.19 1.36-.315 2.224-.486a48.7 48.7 0 0 1 1.387-.253l.19-.038.464-.075.281-.045L50.286 43c.092.234.183.467.269.701l.183.505c.091.24.196.575.261.74.066.163.098.309.17.498.072.19.125.367.177.543.111.348.222.689.32 1.03v.082l.19.676c.052.183.105.366.144.543a56.57 56.57 0 0 0-4.336.631l-.36.051-.654-.777-1.688-1.844A50.163 50.163 0 0 0 43 44.446c.294-.088.628-.17.948-.246.15-.044.301-.114.445-.114zm-2.73-5.499l.057.053 1.003.726.187.14.38.273.083.06.129.093 1.1.866.173.14.457.379.057.047.277.233.707.605.515.453.212.193-.347.073h-.103a51.85 51.85 0 0 0-1.756.413l-.79.2c-.554.153-1.107.3-1.64.466l-.573-.54c-.148-.132-.283-.266-.424-.392l-.31-.28-.09-.08-.604-.539c-.238-.2-.47-.4-.694-.6l-.097-.072-.643-.533-.077-.06-.084-.073-.475-.373a32.26 32.26 0 0 0-1.094-.845c-.199-.147-.373-.28-.553-.407l-.096-.073c-.225-.166-.463-.326-.72-.512a33.32 33.32 0 0 0-.785-.546l-.07-.04a8.528 8.528 0 0 0-.4-.273l-.134-.087c-.11-.08-.226-.146-.341-.226l-.058-.04-.605-.38c-.18-.12-.373-.24-.56-.346a.306.306 0 0 0-.076-.047l-.367-.226-.141-.08-.746-.44-.123-.072-.424-.24A46.695 46.695 0 0 1 33.707 34c.4.18.791.386 1.19.573.399.186.791.392 1.177.592.2.1.38.2.566.3l.141.08c.393.24.766.446 1.145.665l.084.047c.328.186.7.413.97.58.27.166.534.339.798.499.264.16.611.399.791.512.18.113.354.227.527.346l.566.393zm-23.03-8.877l-.08.013-.553-.156c.149-.187.298-.38.453-.567h.279l.583.075.534.075.943.143.707.124.51.094.496.093c.496.106.999.218 1.495.33-.465.356-.93.717-1.365 1.066-.28-.106-.596-.218-.9-.312-.955-.355-1.998-.666-3.102-.978zM49.59 51.47c-.192-.29-.391-.587-.59-.87a44.401 44.401 0 0 1 3.87-.6c.161.741.298 1.483.422 2.217.05.256.1.54.137.796l.118.795c.043.29.087.64.124.876.037.236.062.512.093.741.031.23.031.567.08.749.05.182.02.31.05.552.031.243.069.452.069.674v.142c.037.141.037.29.037.458l-.59-.054-.348-.674c-.13-.263-.273-.512-.41-.768-.28-.512-.553-1.018-.845-1.523-.111-.203-.236-.405-.354-.6l-.366-.6a46.425 46.425 0 0 0-1.118-1.752l-.124-.19c-.087-.127-.168-.248-.255-.37zM27.615 30.15l.204-.122a53.898 53.898 0 0 1 8.878-5.04c.75-.312 1.551-.664 2.373-.989.375.393.762.813 1.183 1.28A58.177 58.177 0 0 1 43 28.593a55.383 55.383 0 0 0-4.252 1.518 48.348 48.348 0 0 0-4.745 2.208l-.092.048a.693.693 0 0 1-.132.06l-.197.109-.519.278a40.12 40.12 0 0 0-3.023 1.802l-.223.135-.08.048c-.13.074-.25.162-.367.244l-.092.06-.092.061-.184.13a54.862 54.862 0 0 0-7.341 5.886l-.842.82A57.067 57.067 0 0 1 18 38.83l.657-.739a53.703 53.703 0 0 1 5.258-5.074l.085-.075.08-.074.091-.075.092-.08c.138-.123.29-.245.434-.353a78.036 78.036 0 0 1 1.972-1.538l.144-.108.592-.42.078-.055c.042-.032.086-.061.132-.088zm36.926-9.845c1.738.169 3.504.412 5.269.768l1.19.244c-.12.1-.22.206-.32.3l-.168.162a50.103 50.103 0 0 0-3.303 3.446c-.134.156-.268.3-.395.456l-.153.18-.12.138a58.62 58.62 0 0 0-16.081 0l-.12-.131-.148-.175-.4-.462a52.054 52.054 0 0 0-3.29-3.421l-.154-.156-.348-.331.374-.081.816-.169a58.293 58.293 0 0 1 5.256-.762l.748-.074h.194c1.659-.144 3.417-.244 5.109-.238 1.691.007 3.41.088 5.108.231h.194l.742.075zm17.577 12.082a49.288 49.288 0 0 0-4.891-2.287A51.143 51.143 0 0 0 73 28.593l1.072-1.353 1.696-1.955A55.74 55.74 0 0 1 76.964 24c.795.304 1.59.643 2.367.98a56.968 56.968 0 0 1 3.602 1.787 53.564 53.564 0 0 1 5.686 3.537l.658.48.144.109c.658.467 1.315.988 1.972 1.542.178.135.349.278.526.42l.165.142a52.53 52.53 0 0 1 5.259 5.08l.657.744c-.868 1.096-1.854 2.164-2.84 3.179-.263-.27-.545-.541-.854-.832l-1.913-1.745-1.973-1.644c-.315-.203-.624-.44-.926-.676l-.257-.19a23.67 23.67 0 0 0-.88-.676l-.507-.352-1.82-1.218a50.668 50.668 0 0 0-3.044-1.812l-.717-.386-.151-.081zM100 46.04a78.868 78.868 0 0 0 2.52-3.04 55.22 55.22 0 0 1 5.196 8.942v.096c.228.486.449.979.642 1.43A52.92 52.92 0 0 1 109 61a52.337 52.337 0 0 0-1.601-3.533A58.553 58.553 0 0 0 100 46.04zM52.835 58.17l.657.106h.406l.1 3.126v.053c.003.064.003.128 0 .192V64H53.1a57.338 57.338 0 0 1-6.297-.912 56.123 56.123 0 0 1-10.775-3.385 54.097 54.097 0 0 1-6.059-3.073l-.365-.212-.372-.231a53.274 53.274 0 0 1-4.65-3.166l-.286-.225-.186-.139-.146-.125A53.366 53.366 0 0 1 17.8 46.92l-.279-.31-.392-.424-.12-.132a1.178 1.178 0 0 1-.132-.146.37.37 0 0 1-.08-.079l-.285-.344a55.687 55.687 0 0 1-2.658-3.305l-.166-.218-.04-.053-.186-.264-.086-.119v-.046a1.104 1.104 0 0 1-.12-.172 37.018 37.018 0 0 1-1.215-1.772v-.046a.165.165 0 0 0-.04-.06c.213-.449.452-.918.724-1.447.332-.621.698-1.322 1.096-1.983.611.833 1.236 1.64 1.867 2.38l.1.125.12.146.079.092.279.33a57.565 57.565 0 0 0 3.082 3.306c.085.098.176.19.273.277l.073.073.073.06c.042.05.089.096.14.138l.139.132c.285.285.578.556.863.82l1.933 1.706 1.993 1.606.738.542.305.218 1.03.753.85.569.618.41.664.423.073.04a55.8 55.8 0 0 0 5.88 3.192l.325.152.598.271c.67.284 1.435.621 2.265.945a52.895 52.895 0 0 0 9.785 2.803c1.528.284 3.096.509 4.65.661H52.835zm38.81-5.285l-.299.066a52.435 52.435 0 0 1-4.65 3.18l-.232.145-.14.08c-.112.08-.232.139-.371.225-.372.245-.738.45-1.116.662l-.758.418h-.046c-.206.106-.405.218-.618.318-.664.318-1.328.655-1.993.98l-.77.351-.12.053-.664.285a55.583 55.583 0 0 1-10.754 3.392 56.43 56.43 0 0 1-6.33.92l-.505.04H62v-.782a2.18 2.18 0 0 0 0-.231v-2.345l.106-2.392h.352l.665-.06H63.409a48.065 48.065 0 0 0 4.582-.662 53.832 53.832 0 0 0 12.056-3.756l.24-.106c.067-.024.131-.055.192-.092l.146-.06.346-.152 1.05-.51.663-.318.18-.093.737-.39.724-.398h.047c.16-.073.299-.16.445-.239l.617-.357c.492-.285.984-.57 1.448-.868l.06-.04.226-.146.086-.053.08-.046.306-.199.226-.146.352-.231.285-.192.3-.2.072-.046.618-.423.365-.265.618-.444a36.43 36.43 0 0 0 1.847-1.438l.073-.053c.152-.126.319-.251.471-.39.186-.146.372-.3.558-.464l.1-.093.598-.51.133-.12c.292-.258.484-.43.85-.768.365-.337.69-.642.99-.94l.272-.265.14-.14.139-.138.14-.14c.126-.139.278-.278.424-.443.038-.034.073-.07.107-.106l.352-.365.1-.106.484-.51.1-.119c.186-.192.365-.397.545-.596l.392-.437.305-.358.133-.146c.038-.042.073-.086.106-.132l.186-.219.213-.258c.67-.802 1.328-1.65 1.953-2.504.385.662.75 1.325 1.096 1.987.245.464.485.947.717 1.444a.855.855 0 0 1-.073.106 49.103 49.103 0 0 1-1.362 2l-.259.365-.053.06-.126.165-.12.166-.265.358-.04.046-.053.073-.193.258-.618.782-.093.119-.63.768c-.187.239-.36.45-.545.663v.04l-.1.119-.133.146-.18.212-.225.245c-.193.218-.405.437-.605.662l-.172.185c-.166.173-.326.345-.499.517l-.225.232c-.107.12-.186.185-.332.344-.147.16-.206.206-.446.444-.239.239-.484.477-.73.709-.545.517-1.036.967-1.501 1.384l-.047.04-.18.153-.232.198c-.046.047-.1.086-.146.126l-.425.364-.697.577-1.05.828zm-16.694 45.53a53.108 53.108 0 0 0 7.31 6.558c21.563-11.263 32.816-35.683 27.384-59.422C104.213 21.811 83.465 4.736 59.156 4c.84.938 1.66 1.936 2.46 2.994l.37.497.325.419c.195.265.38.53.723 1.035l.37.551.187.279c.139.206.271.418.424.664l.185.305c.166.265.325.531.53.883.16.272.319.537.471.81l.318.57.424.804c.173.318.345.65.498.982.092.166.179.345.265.518.152.305.305.65.45.969l.285.664.213.484c.35.817.676 1.66.98 2.51-1.75-.353-3.599-.631-5.587-.99-.14-.259-.292-.51-.444-.756-.411-.664-.829-1.361-1.24-1.992-.218-.305-.437-.644-.662-.969a60.163 60.163 0 0 0-2.77-3.777l-.452-.577-.45.577c-.219.266-.431.538-.63.81-.08.1-.159.212-.245.319-.248.33-.38.51-.398.537-.146.2-.292.392-.424.578l-.378.53-.543.777-.352.518c-.203.297-.397.593-.583.89l-.457.71-.246.405c-.139.212-.238.391-.404.664-.166.272-.331.544-.557.922a57.082 57.082 0 0 0-5.461.817c.08-.206.166-.432.358-.95.1-.245.199-.497.371-.909.126-.365.278-.684.464-1.122.14-.292.292-.637.437-.956l.279-.59c.086-.186.179-.365.265-.551.179-.352.351-.697.537-1.049.106-.212.219-.418.331-.624.113-.206.226-.418.345-.617l.285-.511c.252-.439.517-.877.782-1.295.181-.287.285-.456.311-.504l.345-.571c.166-.246.292-.438.497-.744.206-.305.405-.597.63-.896.225-.298.444-.59.782-1.035a47.707 47.707 0 0 1 2.433-2.974c-24.288.755-45.01 17.819-50.445 41.537-5.433 23.718 5.79 48.122 27.32 59.403a56.082 56.082 0 0 0 7.29-6.597l1.71-1.939 1.61-1.991.856-.95c.272-.364.55-.743.828-1.134l.557-.83c.285-.458.577-.89.855-1.328a54.238 54.238 0 0 0 3.626-6.85c.331-.736.65-1.5.947-2.263a51.284 51.284 0 0 0 2.81-9.897l.12-.797c.053-.112.053-.212.053-.312.04-.225.08-.45.12-.71.066-.418.125-.823.172-1.241.04-.22.066-.465.086-.664.02-.199.04-.365.06-.577l.06-.63c.019-.22.059-.446.059-.665l.046-.624v-.557c.04-.206.04-.432.04-.923v-.71-.73-.717l-.12-3.81v-.345c-.006-.206-.052-.438-.052-.75-.02-.266-.047-.512-.073-.777-.027-.266-.06-.518-.086-.77-.027-.252-.087-.504-.087-.757l-.119-.783a11.59 11.59 0 0 0-.12-.77 55.402 55.402 0 0 0-.264-1.513 52.412 52.412 0 0 0-.484-2.304l-.1-.438c-.159-.697-.35-1.427-.59-2.336-.099-.339-.192-.63-.311-1.003-.12-.371-.252-.81-.358-1.121-.106-.312-.219-.63-.325-.936-.046-.14-.1-.279-.146-.412-.119-.318-.238-.664-.364-.982l-.113-.286c-.258-.67-.53-1.327-.848-2.037-.146-.346-.3-.688-.464-1.03-.338-.663-.656-1.327-1.001-1.99a53.632 53.632 0 0 0-1.77-3.173c-.119-.2-.245-.412-.51-.83a63.437 63.437 0 0 0-2.26-3.319c-.093-.12-.186-.252-.279-.372l-.35-.471a6.378 6.378 0 0 1-.253-.319c-.192-.245-.378-.484-.57-.716a24.947 24.947 0 0 0-.914-1.122c-.153-.186-.319-.372-.471-.545-.404-.47-.815-.902-1.16-1.294a21.219 21.219 0 0 0-1.054-1.115l-.61-.617-.357-.352-.372-.359a32.304 32.304 0 0 0-1.22-1.128c-.165-.16-.337-.305-.576-.524l-.517-.432c-.265-.212-.523-.438-.802-.664l-.484-.391a49.027 49.027 0 0 0-1.988-1.507 41.896 41.896 0 0 1 1.988-1.095c.478-.252.955-.491 1.551-.637a54.822 54.822 0 0 1 7.457 5.834c.159.146.318.305.696.677.179.18.358.339.523.511l.345.352.484.491.954 1.016.855.916.259.299c.219.265.444.537.663.81l.318.378.258.318c.124.15.241.299.352.445l.192.246c.199.252.39.504.576.803l.418.57c.398.545.789 1.11 1.16 1.667l.225.345.219.332c.172.259.331.524.497.776.166.253.318.518.497.823.106.173.212.346.391.664.206.352.411.71.603 1.069.365.73.723 1.374 1.028 1.991.093.166.172.345.258.518l.352.724c.238.484.45.969.662 1.453.391.883.69 1.62.935 2.284l.166.424.556 1.527.557-1.527c.047-.139.106-.278.166-.424.258-.764.59-1.534.921-2.297.212-.531.537-1.089.789-1.606.252-.518.517-1.062.762-1.547.245-.485.504-.97.776-1.527l.556-1.029c.22-.365.438-.736.663-1.101.08-.133.126-.186.259-.412.132-.226.271-.438.41-.664a48.506 48.506 0 0 1 1.292-1.945c.173-.239.34-.47.505-.71.298-.398.596-.796.901-1.195l.206-.265c.1-.14.212-.279.331-.425l.245-.305.71-.89.762-.87c.205-.212.404-.437.616-.663.332-.372.663-.717 1.034-1.115l.325-.325.252-.26.888-.876.524-.497a53.928 53.928 0 0 1 7.556-5.888c.49.226.974.471 1.458.717.63.338 1.325.703 1.988 1.102l-.636.471-.862.664c-.298.232-.603.478-.888.717l-.795.663-.822.75c-.285.246-.557.498-.829.744-.464.425-.947.896-1.597 1.54-.152.153-.298.292-.437.438-.352.358-.71.73-1.08 1.135l-1.71 1.932-1.466 1.852-.218.272-.723.982c-.245.319-.477.65-.716.982l-.556.83c-.285.438-.577.87-.915 1.467-.14.213-.285.438-.504.817-.298.537-.643 1.088-.96 1.679-.067.106-.127.219-.187.325-.212.392-.424.777-.616 1.168-.14.266-.232.432-.404.804-.173.371-.338.683-.504 1.035a7.972 7.972 0 0 0-.371.876l-.186.425c-.258.59-.497 1.168-.729 1.772l-.12.292a47.079 47.079 0 0 0-1.563 4.733c-.22.724-.398 1.42-.55 2.051l-.1.445a30.96 30.96 0 0 0-.351 1.62c-.047.212-.086.438-.126.663a48.265 48.265 0 0 0-.305 1.706l-.073.458-.1.724c-.032.186-.072.365-.072.544-.04.292-.1.59-.1.876-.04.113-.04.24-.04.345-.02.253-.06.485-.06.724v.325l-.185 3.804V63.494c.014.359.053.717.053 1.195v.312c.02.305.06.69.073.903.013.212.06.411.06.663 0 .253.04.538.06.79.02.253.053.498.092.797.053.442.115.885.186 1.327l.073.445c.04.232.1.531.126.697.026.166.086.325.126.71a54.04 54.04 0 0 0 2.764 9.798c.291.763.623 1.533.994 2.376a55.518 55.518 0 0 0 9.869 14.908z"/>
    </g>
</svg>
