<svg xmlns="http://www.w3.org/2000/svg" width="11" height="19" viewBox="0 0 11 19">
    <g fill="none" fill-rule="evenodd">
        <path fill="#FAFBFB" d="M-1188-686H252v7895h-1440z"/>
        <path fill="#FFF" fill-rule="nonzero" d="M9.91.55L7.527.545c-2.678 0-4.408 1.782-4.408 4.54v2.093H.723a.375.375 0 0 0-.375.377v3.033c0 .207.168.376.375.376h2.396v7.653c0 .208.168.376.375.376H6.62a.375.375 0 0 0 .375-.376v-7.653h2.802a.375.375 0 0 0 .375-.376V7.556a.377.377 0 0 0-.374-.377H6.995V5.405c0-.853.203-1.286 1.31-1.286H9.91a.375.375 0 0 0 .374-.377V.926A.376.376 0 0 0 9.91.549z" opacity=".591"/>
    </g>
</svg>
