<svg xmlns="http://www.w3.org/2000/svg" width="9" height="13" viewBox="0 0 9 13">
    <g fill="none" fill-rule="evenodd">
        <path fill="#FAFBFB" d="M-137-7795h1440V100H-137z"/>
        <path fill="#F84F78" fill-rule="nonzero" d="M8.787 3.236c-.046-.174-.14-.359-.21-.52C7.74.716 5.914 0 4.439 0 2.465 0 .29 1.317 0 4.033v.555c0 .023.008.23.02.335.162 1.294 1.188 2.67 1.955 3.963.824 1.387 1.68 2.75 2.528 4.114.522-.89 1.043-1.791 1.554-2.658.139-.254.3-.508.44-.751.093-.162.27-.323.351-.474C7.673 7.615 9 6.101 9 4.611v-.613c0-.161-.201-.728-.213-.762zm-4.35 2.542c-.574 0-1.204-.282-1.514-1.061-.047-.124-.043-.372-.043-.395v-.35c0-.993.86-1.444 1.607-1.444.921 0 1.633.722 1.633 1.625s-.762 1.625-1.682 1.625z"/>
    </g>
</svg>
