<svg xmlns="http://www.w3.org/2000/svg" width="38" height="38" viewBox="0 0 38 38">
    <g fill="none" fill-rule="evenodd">
        <path fill="#FAFBFB" d="M-1207-22H233v7895h-1440z"/>
        <g transform="translate(1 1)">
            <g fill="#FFF" fill-rule="nonzero">
                <path d="M17.556 17.375h.134c1.23-.02 2.224-.436 2.958-1.23 1.616-1.752 1.347-4.754 1.318-5.04-.105-2.152-1.163-3.18-2.035-3.661-.65-.36-1.41-.553-2.258-.569H17.602c-.466 0-1.38.073-2.257.553-.882.48-1.956 1.51-2.06 3.676-.03.287-.299 3.289 1.317 5.04.73.795 1.724 1.21 2.954 1.231zm-3.151-6.17c0-.012.004-.024.004-.032.138-2.894 2.274-3.204 3.189-3.204h.05c1.133.024 3.059.468 3.189 3.204 0 .012 0 .024.004.032.004.028.298 2.772-1.036 4.217-.529.573-1.234.855-2.161.863h-.042c-.923-.008-1.632-.29-2.157-.863-1.33-1.437-1.045-4.193-1.04-4.217z"/>
                <path d="M26.374 22.24v-.012c0-.03-.004-.062-.004-.097-.024-.775-.077-2.586-1.834-3.165l-.04-.012c-1.826-.45-3.343-1.467-3.36-1.479a.558.558 0 0 0-.76.13.516.516 0 0 0 .133.735c.069.047 1.68 1.13 3.695 1.631.943.325 1.049 1.299 1.077 2.19 0 .036 0 .067.004.099.004.352-.02.896-.085 1.209-.656.36-3.226 1.604-7.135 1.604-3.894 0-6.48-1.248-7.14-1.608-.065-.313-.093-.857-.085-1.21 0-.03.004-.062.004-.097.028-.892.133-1.866 1.077-2.19 2.015-.502 3.626-1.59 3.695-1.632a.516.516 0 0 0 .133-.736.558.558 0 0 0-.76-.129c-.017.012-1.526 1.029-3.36 1.479a.523.523 0 0 0-.04.012c-1.757.583-1.81 2.394-1.834 3.165 0 .035 0 .066-.004.097v.012c-.004.204-.008 1.248.207 1.772.04.102.113.188.21.247.121.078 3.032 1.87 7.9 1.87 4.87 0 7.78-1.796 7.901-1.87a.528.528 0 0 0 .21-.247c.203-.52.199-1.564.195-1.768z"/>
            </g>
            <circle cx="18" cy="18" r="18" stroke="#FFF"/>
        </g>
    </g>
</svg>
