<svg xmlns="http://www.w3.org/2000/svg" width="1427" height="639" viewBox="0 0 1427 639">
    <g fill="none" fill-rule="evenodd">
        <path fill="#FAFBFB" d="M0-4087h1440v7895H0z"/>
        <g fill="#346FDF" fill-rule="nonzero">
            <g opacity=".1">
                <path d="M112.949 74.727a.29.29 0 0 0-.38.276c.031 1.2.067 2.456.09 3.57.11 5.27-2.357 10.233-6.606 13.284-4.248 3.052-9.74 3.805-14.701 2.017-4.44-1.605-8.855-3.255-13.303-4.832-4.582-1.616-9.036-1.392-13.16 1.282-.462.317-.598.94-.313 1.429.285.489.895.68 1.4.436l.023-.016a14.988 14.988 0 0 1 12.467-.679c3.962 1.415 8.114 2.527 11.87 4.407 11.02 5.503 26.84-4.31 24.386-19.464a5.773 5.773 0 0 0-.158-.859.725.725 0 0 0-.491-.501l-1.124-.35z"/>
                <path d="M132.765 73.044c-4.597 2.307-9.229 2.402-14.066.438-3.554-1.434-5.874-2-9.65-3.624-11.582-5.54-27.718 3.021-25.324 18.843l.06.373c.04.356.285.66.625.772.303.11.586.198.846.296.13.044.271.023.38-.056a.417.417 0 0 0 .171-.344c-.004-1.116-.015-2.234-.015-3.353.005-11.814 10.204-18.966 21.335-14.927 4.505 1.632 8.98 3.358 13.493 4.963 4.397 1.629 9.259 1.07 13.095-1.504.066-.038.127-.083.184-.134a1.04 1.04 0 0 0 .176-1.352 1.046 1.046 0 0 0-1.31-.391z"/>
                <path d="M113.628 69.528a.613.613 0 0 0 .703-.627 82.293 82.293 0 0 0-.048-1.203c-.444-6.125.218-10.348 5.265-14.488l.085-.062c.292-.39.286-.928-.015-1.314a1.082 1.082 0 0 0-1.27-.335.49.49 0 0 0-.11.079c-5.227 3.463-7.798 10.68-6.072 16.705.054.191.099.385.132.581a.756.756 0 0 0 .676.601 5.5 5.5 0 0 1 .654.063zM84.13 95.002c.131 6.702.498 11.41-4.508 15.664a1.87 1.87 0 0 0-.337.49.89.89 0 0 0 .044.91.897.897 0 0 0 .818.409l.027-.02c4.554-2.31 6.335-8.192 5.994-13.751a28.037 28.037 0 0 0-.356-3.101c-.104-.592-.65-.562-1.43-.814a.21.21 0 0 0-.253.213z"/>
                <path d="M72.38 92.297l.81-.588 8.817 12.135-.81.588zM77.968 93.182l.809-.588 4.115 5.663-.81.588zM116.877 59.969l.809-.588 8.817 12.135-.81.588zM115.992 65.556l.809-.588 4.114 5.663-.809.588zM95.476 73.045l.809-.588 10.58 14.563-.81.588zM99.887 72.312l.81-.588 8.816 12.136-.809.587zM104.666 73.785l.809-.588 4.114 5.663-.809.588zM91.43 75.984l.81-.588 10.58 14.563-.81.587zM89.37 79.953l.81-.587L98.995 91.5l-.81.588zM88.485 85.54l.81-.587 4.114 5.663-.81.588z"/>
            </g>
            <g opacity=".164">
                <path d="M41.078 284.983a.29.29 0 0 0-.314-.349c-1.19.157-2.436.323-3.54.463-5.232.66-10.425-1.275-13.903-5.181-3.479-3.907-4.802-9.29-3.543-14.41 1.132-4.583 2.312-9.147 3.415-13.736 1.128-4.725.44-9.132-2.65-12.953a1.074 1.074 0 0 0-1.454-.162 1.08 1.08 0 0 0-.288 1.437l.02.021a14.988 14.988 0 0 1 1.977 12.328c-.992 4.089-1.664 8.334-3.141 12.266-4.322 11.534 7.091 26.243 21.906 22.218.284-.061.564-.143.837-.247a.725.725 0 0 0 .448-.541l.23-1.154z"/>
                <path d="M44.824 304.515c-2.775-4.33-3.354-8.928-1.907-13.944 1.055-3.684 1.375-6.05 2.596-9.976 4.299-12.098-5.902-27.25-21.388-23.215l-.364.099a.922.922 0 0 0-.703.701c-.076.314-.135.604-.205.873a.417.417 0 0 0 .095.372c.09.1.225.15.36.134 1.11-.12 2.22-.249 3.333-.365 11.75-1.23 19.93 8.166 17.075 19.658-1.152 4.65-2.4 9.281-3.525 13.937-1.16 4.544-.097 9.32 2.865 12.867.044.061.095.118.152.168.375.35.957.364 1.363.034.407-.33.515-.903.253-1.343z"/>
                <path d="M46.32 285.115a.613.613 0 0 0 .697.634c.478-.068 1.04-.148 1.19-.173 6.046-1.083 10.315-.866 14.96 3.72l.07.079c.418.25.953.187 1.306-.152.352-.34.435-.872.2-1.3a.49.49 0 0 0-.09-.1c-3.99-4.836-11.437-6.639-17.248-4.292a5.644 5.644 0 0 1-.564.192.756.756 0 0 0-.527.735 5.5 5.5 0 0 1 .005.657zM17.902 258.44c-6.652.832-11.296 1.69-16.05-2.844a1.87 1.87 0 0 0-.522-.285.89.89 0 0 0-.9.14.897.897 0 0 0-.322.855l.023.025c2.774 4.288 8.809 5.444 14.302 4.524a28.037 28.037 0 0 0 3.047-.678c.578-.166.49-.705.66-1.506a.21.21 0 0 0-.238-.23z"/>
                <path d="M19.364 246.474l.67.743-11.148 10.037-.67-.743zM19.068 252.123l.669.743-5.202 4.684-.67-.743zM56.166 287.347l.67.743-11.148 10.037-.669-.743zM50.517 287.05l.67.744-5.203 4.684-.669-.744zM40.924 267.43l.67.743-13.377 12.044-.67-.743zM42.114 271.74l.67.744-11.148 10.037-.669-.743zM41.15 276.647l.668.743-5.202 4.684-.669-.744zM37.579 263.714l.669.743-13.377 12.045-.67-.744zM33.416 262.08l.669.743-11.147 10.037-.67-.743zM27.767 261.784l.669.743-5.202 4.684-.67-.743z"/>
            </g>
            <g opacity=".1">
                <path d="M298.612 179.296a.343.343 0 0 0-.523.18c-.38 1.365-.774 2.792-1.131 4.056-1.697 5.98-6.195 10.726-12.041 12.703-5.847 1.977-12.303.936-17.282-2.787-4.455-3.337-8.867-6.717-13.34-10.026-4.61-3.399-9.713-4.68-15.29-3.085-.63.198-.998.853-.846 1.503.153.65.776 1.074 1.428.974l.032-.01a17.688 17.688 0 0 1 14.3 3.525c3.98 2.96 8.281 5.642 11.869 9.054 10.531 9.997 31.77 4.38 34.234-13.548a6.8 6.8 0 0 0 .119-1.023.853.853 0 0 0-.382-.734l-1.147-.782z"/>
                <path d="M321.493 184.24c-5.983 1.018-11.242-.47-16.02-4.349-3.515-2.84-5.936-4.276-9.636-7.406-11.153-10.233-32.314-6.135-35.077 12.526l-.06.44c-.08.416.092.843.437 1.086.305.228.592.425.853.625a.493.493 0 0 0 .76-.261c.38-1.26.753-2.523 1.14-3.785 4.087-13.317 18.063-17.87 29.225-9.484 4.519 3.39 8.97 6.876 13.508 10.238 4.398 3.35 10.076 4.394 15.293 2.812.088-.02.173-.049.254-.087.552-.246.836-.87.666-1.464a1.233 1.233 0 0 0-1.343-.892z"/>
                <path d="M300.749 173.667a.676.676 0 0 0 .962-.447c.134-.54.292-1.176.33-1.35 1.465-6.941 3.526-11.385 10.312-14.194l.112-.039c.44-.329.605-.928.402-1.461-.203-.534-.724-.87-1.271-.82a.532.532 0 0 0-.143.05c-6.767 1.996-11.848 9.086-11.893 16.367-.002.231-.016.461-.041.69a.905.905 0 0 0 .54.904c.256.093.495.2.69.3zM259.464 192.446c-2.26 7.564-3.535 12.969-10.777 16.079a2.288 2.288 0 0 0-.56.436 1.039 1.039 0 1 0 .509 1.767l.038-.013c6.028-1.08 10.175-7.086 11.785-13.438.304-1.185.54-2.386.71-3.598.093-.699-.54-.846-1.339-1.388a.254.254 0 0 0-.366.155z"/>
                <path d="M246.678 185.099l.945-.326 5.86 17.02-.945.325zM253.033 188.198l.946-.325 2.604 7.564-.945.325zM312.213 160.418l.945-.326 7.163 20.802-.946.325zM308.136 163.937l.946-.326 5.86 17.02-.945.325zM305.982 169.966l.946-.325 2.604 7.564-.945.326zM279.12 171.813l.945-.326 7.163 20.801-.946.326zM284.498 172.076l.946-.326 5.86 17.02-.945.325zM289.908 175.501l.946-.325 2.604 7.564-.945.325zM273.447 173.766l.945-.326 7.163 20.802-.946.325zM269.37 177.285l.946-.326 5.86 17.02-.946.325zM267.216 183.315l.945-.326 2.605 7.564-.945.326z"/>
            </g>
            <g opacity=".1">
                <path d="M14.095 559.102c-4.666-.836-8.13-3.283-10.604-7.326-1.822-2.963-3.217-4.63-5.097-7.852-5.459-10.282-22.091-12.88-29.102-.183l-.163.3a.816.816 0 0 0 .032.896c.163.244.322.461.46.673a.387.387 0 0 0 .627.011c.616-.806 1.227-1.617 1.848-2.423 6.556-8.507 18.035-8.118 23.992.838 2.413 3.623 4.752 7.296 7.186 10.904a13.394 13.394 0 0 0 10.48 6.03c.069.008.139.01.209.003a.947.947 0 0 0 .132-1.871z"/>
                <path d="M1.632 546.446a.55.55 0 0 0 .839-.069c.247-.351.536-.765.612-.879 2.975-4.586 5.717-7.229 11.542-7.467l.094.001a.963.963 0 0 0-.03-1.859.44.44 0 0 0-.12-.002c-5.59-.338-11.305 3.41-13.311 8.61a5.004 5.004 0 0 1-.218.482.67.67 0 0 0 .159.788c.165.134.315.273.433.395z"/>
                <path d="M9.375 541.273l1 .018-.235 13.48-1-.017zM5.934 545.009l1 .017-.103 5.887-1-.017z"/>
            </g>
            <g opacity=".112">
                <path d="M1297.368 44.982a.24.24 0 0 0-.337-.187c-.879.432-1.796.885-2.612 1.281a13.125 13.125 0 0 1-18.791-10.55c-.366-3.829-.689-7.656-1.077-11.482-.407-3.938-2.131-7.156-5.555-9.296a.879.879 0 0 0-1.002 1.439l.02.011a12.326 12.326 0 0 1 4.867 8.989c.338 3.411.968 6.86.89 10.277-.22 10.022 12.585 18.382 22.95 11.41.204-.12.399-.257.582-.408a.583.583 0 0 0 .2-.534l-.135-.95z"/>
                <path d="M1305.892 59.34c-3.346-2.628-5.06-6.029-5.318-10.276-.195-3.117-.598-5.027-.73-8.373.006-10.452-12.083-19.522-22.993-12.412l-.256.17a.733.733 0 0 0-.352.724c.026.261.06.5.08.726a.348.348 0 0 0 .494.274c.828-.38 1.654-.765 2.486-1.142 8.783-3.98 17.718 1.166 18.666 10.777.385 3.888.69 7.786 1.1 11.672a12.025 12.025 0 0 0 5.765 9.197.883.883 0 0 0 .165.091.85.85 0 0 0 .893-1.428z"/>
                <path d="M1301.347 44.055a.493.493 0 0 0 .694.299c.344-.175.748-.38.856-.44 4.291-2.38 7.579-3.32 12.297-1.054l.074.041a.865.865 0 0 0 .76-1.486.395.395 0 0 0-.095-.053c-4.289-2.624-10.398-2.061-14.18 1.215-.12.103-.246.2-.377.29a.601.601 0 0 0-.206.693c.075.175.135.348.177.495zM1272.364 30.907c-4.969 2.334-8.36 4.177-13.36 1.868a1.607 1.607 0 0 0-.489-.089.719.719 0 0 0-.675 1.082l.025.014c3.382 2.622 8.43 1.987 12.468-.122a22.48 22.48 0 0 0 2.192-1.3c.405-.274.184-.67.09-1.335a.179.179 0 0 0-.251-.118z"/>
                <path d="M1270.21 21.348l.875.485-5.868 10.587-.875-.485zM1271.213 25.8l.875.484-2.563 4.623-.874-.484zM1309.666 43.218l.874.485-5.868 10.587-.875-.484zM1305.363 44.729l.875.484-2.563 4.624-.875-.485zM1291.891 31.754l.875.484-7.233 13.05-.875-.485zM1294.27 34.684l.874.485-5.868 10.587-.875-.485zM1295.273 39.136l.875.485-2.563 4.623-.874-.485zM1288.497 29.872l.875.485-7.234 13.05-.874-.486zM1284.751 29.408l.875.485-5.869 10.587-.874-.485zM1280.445 30.916l.875.485-2.563 4.624-.875-.485z"/>
            </g>
            <g opacity=".141">
                <path d="M1069.853 93.322a.27.27 0 0 0-.392.183c-.188 1.085-.382 2.219-.561 3.224a14.76 14.76 0 0 1-22.022 10.123c-3.725-2.2-7.42-4.435-11.158-6.611-3.852-2.233-7.92-2.791-12.13-1.09a.988.988 0 0 0 .646 1.862l.024-.012a13.862 13.862 0 0 1 11.395 1.515c3.328 1.947 6.882 3.654 9.94 5.984 8.972 6.825 25.045.7 25.554-13.339.024-.266.028-.533.012-.799a.655.655 0 0 0-.354-.534l-.954-.506z"/>
                <path d="M1088.553 95.057c-4.604 1.307-8.831.62-12.865-1.954-2.966-1.883-4.97-2.78-8.102-4.87-9.505-6.915-25.75-1.912-26.493 12.715l-.014.345a.824.824 0 0 0 .425.799c.256.149.496.276.715.407a.391.391 0 0 0 .575-.268c.202-1.004.398-2.01.605-3.017 2.184-10.622 12.773-15.35 22.144-9.86 3.793 2.22 7.542 4.52 11.347 6.716a13.524 13.524 0 0 0 12.18.834.994.994 0 0 0 .191-.09.957.957 0 0 0-.708-1.757z"/>
                <path d="M1071.64 89.089a.555.555 0 0 0 .731-.434c.069-.429.149-.932.167-1.07.67-5.478 1.988-9.09 7.17-11.885l.085-.04a.972.972 0 0 0-.85-1.674.444.444 0 0 0-.11.052c-5.223 2.167-8.75 8.097-8.27 13.704.016.178.021.357.017.535.003.3.204.563.493.645.21.048.406.108.568.167zM1040.518 106.768c-1.16 6.063-1.725 10.367-7.132 13.39-.154.107-.29.238-.403.386a.809.809 0 0 0 .538 1.33l.029-.014c4.62-1.344 7.38-6.357 8.13-11.424.144-.946.233-1.898.268-2.854.017-.55-.49-.611-1.156-.965a.2.2 0 0 0-.274.15z"/>
                <path d="M1030.397 102.408l.907-.422 5.753 12.338-.906.423zM1035.11 104.438l.907-.423 2.512 5.388-.906.423zM1076.379 80.967l.906-.423 5.754 12.339-.907.422zM1074.908 85.88l.907-.423 2.512 5.388-.906.423zM1054.198 89.56l.907-.423 7.09 15.207-.906.423zM1058.437 89.333l.906-.422 5.754 12.338-.907.423zM1063.15 91.363l.906-.423 2.513 5.388-.907.423zM1050.241 91.405l.907-.423 7.09 15.207-.906.423zM1047.344 94.506l.906-.422 5.753 12.338-.906.423zM1045.868 99.421l.907-.422 2.512 5.388-.906.422z"/>
            </g>
            <g opacity=".1">
                <path d="M259.263 582.455a.332.332 0 0 0 .29.448c1.358.043 2.776.086 4.033.132a18.2 18.2 0 0 1 16.139 25.15c-2.046 4.926-4.142 9.822-6.157 14.759-2.065 5.086-2.049 10.149.75 14.998a1.219 1.219 0 0 0 2.163-1.11l-.018-.027a17.092 17.092 0 0 1-.106-14.173c1.806-4.397 3.281-9.03 5.6-13.162 6.794-12.127-3.441-30.7-20.67-28.912a6.464 6.464 0 0 0-.978.122.808.808 0 0 0-.592.524l-.454 1.25z"/>
                <path d="M258.173 559.325c2.386 5.397 2.272 10.677-.179 16.044-1.79 3.944-2.54 6.545-4.555 10.728-6.812 12.792 2.084 31.768 20.07 30.164l.424-.041c.405-.02.76-.277.903-.656.138-.339.252-.654.374-.943a.482.482 0 0 0-.426-.656c-1.26-.075-2.523-.14-3.787-.22-13.344-.845-20.934-12.962-15.838-25.346 2.06-5.013 4.223-9.984 6.252-15.008a16.675 16.675 0 0 0-1.072-15.014 1.225 1.225 0 0 0-.142-.218 1.18 1.18 0 0 0-2.024 1.166z"/>
                <path d="M253.788 580.999a.684.684 0 0 0-.656-.818 91.027 91.027 0 0 0-1.333-.02c-6.805.123-11.441-.867-15.743-6.714l-.064-.098a1.199 1.199 0 0 0-1.897 1.326.547.547 0 0 0 .082.125c3.542 6.005 11.388 9.293 18.152 7.745a6.23 6.23 0 0 1 .65-.112.834.834 0 0 0 .702-.712c.023-.264.063-.515.107-.722zM280.714 615.965c7.603.377 12.955.328 17.573 6.411.157.17.34.313.541.426a.997.997 0 0 0 1.53-.885l-.02-.033c-2.435-5.412-9.029-7.92-15.345-7.968a31.173 31.173 0 0 0-3.53.164c-.675.073-.663.702-.98 1.577a.248.248 0 0 0 .23.308zM278.132 634.206l-.545-.838 17.351-11.268.545.838z"/>
                <path d="M277.128 629.07l-.545-.838 14.077-9.142.545.839zM278.797 622.967l-.545-.839 6.148-3.992.545.838zM243.058 576.608l-.545-.84 14.077-9.14.545.838zM249.309 577.56l-.545-.839 6.148-3.993.545.839zM257.357 602.215l-.545-.838 17.351-11.268.545.838zM256.352 597.08l-.544-.84 14.077-9.14.545.838zM258.021 590.976l-.544-.839 6.148-3.993.545.84zM260.288 606.729l-.545-.839 17.351-11.268.545.839zM264.572 609.736l-.545-.839 14.077-9.142.545.84zM270.826 610.693l-.545-.839 6.149-3.992.544.838z"/>
            </g>
            <g opacity=".1">
                <path d="M410.113 16.19a.303.303 0 0 0-.488 0c-.707 1.024-1.445 2.098-2.105 3.045a16.576 16.576 0 0 1-13.68 7.11 16.58 16.58 0 0 1-13.602-7.26c-2.755-4.047-5.461-8.118-8.24-12.147C369.132 2.794 365.248.27 360.143 0a1.115 1.115 0 0 0-1.136 1.007 1.12 1.12 0 0 0 .91 1.218h.03c4.472.64 8.449 3.2 10.904 7.021 2.47 3.597 5.283 7.057 7.294 10.918 5.907 11.32 25.217 12.73 32.415-1.463.152-.26.283-.534.393-.815a.748.748 0 0 0-.107-.72l-.732-.977z"/>
                <path d="M429.119 26.842c-5.38-.865-9.412-3.605-12.336-8.196-2.154-3.365-3.791-5.251-6.017-8.91-6.481-11.694-25.653-14.344-33.457.372l-.181.348a.936.936 0 0 0 .054 1.028c.193.276.38.523.542.763a.445.445 0 0 0 .722 0c.692-.937 1.378-1.88 2.076-2.818 7.365-9.897 20.568-9.68 27.596.48 2.846 4.11 5.608 8.28 8.478 12.373a15.404 15.404 0 0 0 12.168 6.712c.08.008.16.008.24 0a1.088 1.088 0 0 0 .115-2.152z"/>
                <path d="M413.753 11.825a.613.613 0 0 0 .938-.095c.27-.4.586-.871.668-1 3.24-5.218 6.258-8.245 12.774-8.628h.106c.465-.143.777-.583.76-1.072a1.082 1.082 0 0 0-.83-1.018.49.49 0 0 0-.135 0c-6.265-.27-12.588 4.057-14.732 9.946-.069.186-.147.37-.235.547a.756.756 0 0 0 .194.884c.187.147.357.3.492.436zM373.842 15.094c-4.088 5.5-6.723 9.524-13.71 10.024-.209.035-.41.102-.598.197a.889.889 0 0 0-.533.763.883.883 0 0 0 .45.811h.035c5.38.807 10.603-2.904 13.794-7.602a27.611 27.611 0 0 0 1.638-2.718c.28-.54-.21-.836-.723-1.498a.23.23 0 0 0-.353.023z"/>
                <path d="M366 6h1v15h-1zM369 11h1v7h-1zM423 6h1v15h-1zM419 11h1v7h-1zM396 4h1v19h-1zM401 6h1v15h-1zM404 11h1v7h-1zM391 4h1v19h-1zM387 6h1v15h-1zM383 11h1v7h-1z"/>
            </g>
            <g opacity=".116">
                <path d="M564.474 534.862a.35.35 0 0 0-.419-.377c-1.394.326-2.851.67-4.145.967a19.2 19.2 0 0 1-23.313-21.223c.74-5.578 1.538-11.14 2.244-16.72.716-5.747-.684-10.902-4.86-15.078a1.285 1.285 0 0 0-1.9 1.72l.025.023c3.35 4.003 4.8 9.26 3.978 14.414-.64 4.974-.878 10.097-2.113 14.942-3.612 14.212 11.89 30.344 28.959 23.818a6.82 6.82 0 0 0 .962-.392.852.852 0 0 0 .46-.695l.122-1.399z"/>
                <path d="M571.9 558.134c-3.905-4.848-5.23-10.26-4.199-16.398.747-4.507.802-7.362 1.713-12.176 3.45-14.895-10.798-31.803-28.689-25.258l-.42.159c-.407.13-.698.49-.74.915-.049.382-.079.734-.125 1.062a.509.509 0 0 0 .613.552c1.305-.268 2.61-.545 3.92-.809 13.829-2.783 24.871 7.493 23.06 21.504-.73 5.67-1.577 11.326-2.273 17a17.591 17.591 0 0 0 5.191 15.006c.062.069.13.13.205.184a1.244 1.244 0 0 0 1.744-1.741z"/>
                <path d="M570.45 534.85a.722.722 0 0 0 .892.655 96.031 96.031 0 0 0 1.364-.344c6.9-1.983 11.896-2.24 17.875 2.543l.092.083a1.265 1.265 0 0 0 1.572-1.869.577.577 0 0 0-.118-.105c-5.25-5.153-14.142-6.361-20.612-2.936a6.572 6.572 0 0 1-.632.291.88.88 0 0 0-.521.918c.048.275.077.541.089.765zM533.465 506.572c-7.85 1.691-13.29 3.203-19.658-1.735a2.351 2.351 0 0 0-.668-.286 1.052 1.052 0 0 0-1.318 1.32l.031.027c3.958 4.85 11.363 5.606 17.812 3.93 1.204-.31 2.39-.687 3.552-1.13.668-.26.484-.898.569-1.876a.261.261 0 0 0-.32-.25zM531.115 487.277l.743.67-14.604 16.22-.743-.67z"/>
                <path d="M533.541 492.238l.743.669-11.849 13.16-.743-.67zM533.507 498.913l.743.67-5.175 5.747-.744-.67zM582.584 536.396l.743.669-11.85 13.16-.742-.67zM575.953 537.133l.744.669-5.175 5.747-.744-.669zM561.02 514.205l.744.669-14.604 16.22-.744-.67zM563.447 519.165l.743.67-11.849 13.159-.743-.67zM563.412 525.84l.743.67-5.175 5.747-.743-.669zM556.801 510.405l.743.67-14.604 16.22-.743-.67zM551.615 508.512l.743.669-11.849 13.16-.743-.67zM544.98 509.244l.743.67-5.175 5.747-.743-.67z"/>
            </g>
            <g opacity=".126">
                <path d="M900.685 575.887a.341.341 0 0 0-.413.36c.15 1.385.309 2.832.442 4.116a18.677 18.677 0 0 1-23.254 19.993c-5.298-1.375-10.573-2.806-15.878-4.148-5.464-1.373-10.606-.633-15.134 2.904a1.25 1.25 0 0 0 1.436 2.039l.025-.022a17.54 17.54 0 0 1 14.388-2.132c4.727 1.208 9.645 2.045 14.176 3.812 13.294 5.172 30.707-7.883 26.43-25.137a6.633 6.633 0 0 0-.264-.975.83.83 0 0 0-.618-.527l-1.336-.283z"/>
                <path d="M924.035 571.476c-5.144 3.196-10.525 3.834-16.33 2.11-4.263-1.256-7.014-1.647-11.553-3.097-13.972-5.096-31.986 6.655-27.787 24.705l.103.424c.077.408.39.732.795.823.364.092.7.163 1.012.247a.495.495 0 0 0 .605-.527c-.104-1.292-.217-2.584-.316-3.88-1.048-13.682 10.182-23.126 23.495-19.716 5.388 1.377 10.749 2.866 16.144 4.21a17.112 17.112 0 0 0 15.105-3.233c.073-.051.14-.11.201-.176a1.21 1.21 0 0 0-1.474-1.89z"/>
                <path d="M901.383 570.115a.702.702 0 0 0 .737-.783 93.415 93.415 0 0 0-.17-1.358c-1.096-6.897-.752-11.75 4.575-16.957l.09-.079a1.23 1.23 0 0 0-1.618-1.739.562.562 0 0 0-.116.101c-5.596 4.458-7.817 12.9-5.277 19.553.08.211.149.426.206.645a.856.856 0 0 0 .824.612c.272-.014.532-.01.749.005zM869.695 602.472c.702 7.78 1.517 13.212-4.005 18.775-.15.184-.27.39-.356.61a1.023 1.023 0 0 0 1.118 1.43l.03-.027c5.152-3.247 6.76-10.306 5.906-16.732a31.99 31.99 0 0 0-.67-3.563c-.171-.676-.809-.574-1.743-.772a.254.254 0 0 0-.28.28zM850.788 602.453l.755-.656 13.929 16.024-.755.656z"/>
                <path d="M855.864 600.7l.754-.657 11.302 13.001-.755.656zM862.305 601.524l.754-.656 4.936 5.678-.755.656zM904.312 558.584l.755-.656 11.301 13-.754.656zM904.238 565.072l.755-.656 4.935 5.678-.755.656zM880.332 576.772l.754-.656 13.929 16.023-.755.656zM885.408 575.017l.754-.656 11.302 13-.755.657zM891.848 575.842l.755-.656 4.936 5.678-.755.656zM876.163 580.395l.755-.656 13.929 16.024-.755.656zM873.72 585.178l.754-.656 11.301 13-.754.656zM873.64 591.67l.754-.655 4.936 5.677-.755.656z"/>
            </g>
            <g opacity=".1">
                <path d="M1221.165 390.461a.341.341 0 0 0-.475.274c-.117 1.388-.237 2.84-.351 4.126a18.677 18.677 0 0 1-26.642 15.188c-4.938-2.36-9.843-4.772-14.794-7.102-5.102-2.39-10.291-2.645-15.41-.037a1.25 1.25 0 0 0 1.02 2.276l.029-.017a17.54 17.54 0 0 1 14.53.653c4.41 2.087 9.078 3.847 13.189 6.446 12.063 7.614 31.646-1.878 30.74-19.631a6.633 6.633 0 0 0-.073-1.008.83.83 0 0 0-.506-.635l-1.257-.533z"/>
                <path d="M1244.927 390.587c-5.659 2.155-11.063 1.754-16.432-1.045-3.946-2.046-6.57-2.955-10.75-5.245-12.743-7.668-32.668.43-31.99 18.949l.02.436c-.003.416.242.793.623.96.34.16.656.293.946.435a.495.495 0 0 0 .695-.401c.144-1.288.28-2.579.43-3.87 1.581-13.63 14.407-20.757 26.825-14.87 5.026 2.38 10.005 4.864 15.044 7.213a17.112 17.112 0 0 0 15.444-.292c.082-.036.16-.08.232-.134a1.21 1.21 0 0 0-1.087-2.136z"/>
                <path d="M1222.951 384.928a.702.702 0 0 0 .873-.627c.04-.548.084-1.192.092-1.366.24-6.98 1.504-11.678 7.726-15.773l.105-.06a1.23 1.23 0 0 0-1.257-2.016.562.562 0 0 0-.133.077c-6.345 3.308-10.136 11.172-8.912 18.187.039.223.065.447.08.672a.856.856 0 0 0 .692.759c.27.037.524.091.734.147zM1185.671 410.645c-.795 7.77-1.032 13.259-7.514 17.665a2.287 2.287 0 0 0-.465.531 1.023 1.023 0 0 0 .825 1.617l.034-.02c5.677-2.205 8.602-8.827 8.99-15.298a31.99 31.99 0 0 0 .022-3.626c-.04-.696-.685-.717-1.564-1.09a.254.254 0 0 0-.328.22z"/>
                <path d="M1172.432 406.265l.866-.5 8.613 14.918-.866.5zM1178.598 408.304l.866-.5 3.761 6.515-.866.5zM1228.027 374.168l.866-.5 8.613 14.918-.866.5zM1226.716 380.523l.866-.5 3.761 6.515-.866.5zM1201.016 387.446l.866-.5 10.616 18.387-.866.5zM1206.334 386.692l.866-.5 8.613 14.918-.866.5zM1212.499 388.73l.866-.5 3.762 6.516-.867.5zM1196.233 390.208l.866-.5 10.616 18.386-.866.5zM1192.922 394.436l.866-.5 8.613 14.918-.866.5zM1191.604 400.794l.866-.5 3.762 6.515-.866.5z"/>
            </g>
            <g opacity=".109">
                <path d="M1403.325 241.926a.327.327 0 0 0-.48.214c-.25 1.31-.51 2.682-.747 3.896a17.891 17.891 0 0 1-26.906 11.804c-4.47-2.746-8.902-5.536-13.387-8.254-4.623-2.79-9.542-3.553-14.681-1.58a1.198 1.198 0 0 0 .745 2.27l.029-.012a16.804 16.804 0 0 1 13.78 2.08c3.994 2.431 8.266 4.577 11.923 7.467 10.734 8.467 30.344 1.385 31.255-15.627a6.36 6.36 0 0 0 .032-.968.795.795 0 0 0-.418-.656l-1.145-.634z"/>
                <path d="M1425.336 244.592c-5.569 1.467-10.652.524-15.47-2.703-3.543-2.36-5.943-3.5-9.683-6.116-11.34-8.634-30.998-2.982-32.133 14.742l-.023.418a1.01 1.01 0 0 0 .5.98c.305.188.592.348.854.513a.469.469 0 0 0 .697-.31c.26-1.213.512-2.43.778-3.645 2.807-12.83 15.645-18.292 26.847-11.39 4.534 2.79 9.013 5.676 13.563 8.438 4.418 2.763 9.861 3.255 14.663 1.326.08-.026.158-.06.232-.104.502-.278.721-.887.513-1.429a1.16 1.16 0 0 0-1.338-.72z"/>
                <path d="M1404.927 236.292a.644.644 0 0 0 .868-.499c.085-.513.185-1.116.208-1.28.846-6.563 2.442-10.863 8.598-14.058l.102-.045c.389-.344.498-.913.266-1.39a1.167 1.167 0 0 0-1.255-.649.51.51 0 0 0-.13.059c-6.2 2.439-10.43 9.455-9.918 16.21.016.213.02.428.014.642a.83.83 0 0 0 .577.791c.247.065.48.143.67.219zM1367.362 257.714c-1.544 7.21-2.33 12.332-8.89 15.846a2.186 2.186 0 0 0-.494.453.96.96 0 0 0 .612 1.594l.035-.015c5.577-1.526 9.012-7.456 10.04-13.485.195-1.125.326-2.26.392-3.398.034-.656-.572-.737-1.363-1.17a.242.242 0 0 0-.332.175z"/>
                <path d="M1355.242 252.053l.914-.407 6.507 14.617-.913.407zM1360.523 254.08l.914-.407 2.847 6.395-.914.407zM1414.723 223.381l.913-.407 8.135 18.271-.914.407zM1410.968 227.242l.914-.407 6.508 14.617-.914.407zM1408.941 232.523l.914-.407 2.847 6.395-.914.407zM1384.576 236.804l.913-.407 8.135 18.27-.914.407zM1389.043 237.004l.914-.407 6.507 14.617-.913.406zM1395.238 238.624l.913-.407 2.848 6.395-.914.407zM1379.094 239.244l.914-.407 8.135 18.271-.914.407zM1376.254 242.698l.913-.407 6.508 14.617-.914.407zM1374.226 247.98l.914-.408 2.847 6.395-.914.407z"/>
            </g>
            <g opacity=".072">
                <path d="M1341.8 540.871a.361.361 0 0 0-.47-.341c-1.395.484-2.851.994-4.146 1.437a19.791 19.791 0 0 1-26.186-19.244c.157-5.798.377-11.586.499-17.383.115-5.969-1.875-11.102-6.607-14.934a1.325 1.325 0 0 0-1.763 1.969l.029.02a18.587 18.587 0 0 1 5.63 14.348c-.12 5.168.189 10.446-.556 15.546-2.17 14.96 15.459 29.826 32.254 21.297a7.03 7.03 0 0 0 .945-.505.879.879 0 0 0 .397-.763l-.027-1.447z"/>
                <path d="M1351.92 563.928c-4.526-4.549-6.467-9.953-6.071-16.358.28-4.7.028-7.634.444-12.666 1.93-15.642-14.497-31.44-32.133-22.802l-.413.207a1.105 1.105 0 0 0-.66 1.018c-.009.397-.002.761-.014 1.103a.524.524 0 0 0 .688.5c1.31-.416 2.617-.841 3.931-1.252 13.877-4.344 26.305 5 25.957 19.56-.137 5.89-.396 11.781-.498 17.672a18.133 18.133 0 0 0 6.94 14.825c.07.063.146.12.228.166a1.283 1.283 0 0 0 1.6-1.973z"/>
                <path d="M1347.925 540.215a.744.744 0 0 0 .984.575 98.99 98.99 0 0 0 1.362-.5c6.86-2.776 11.953-3.577 18.599.682l.103.075a1.304 1.304 0 0 0 1.41-2.085.595.595 0 0 0-.132-.096c-5.937-4.716-15.184-4.997-21.447-.789a6.774 6.774 0 0 1-.616.367.907.907 0 0 0-.436.997c.08.277.137.547.173.774zM1306.962 515.21c-7.865 2.58-13.28 4.716-20.34.34a2.423 2.423 0 0 0-.715-.222 1.084 1.084 0 0 0-1.209 1.496l.035.025c4.58 4.545 12.252 4.522 18.683 2.108a33.9 33.9 0 0 0 3.52-1.541c.657-.338.4-.972.381-1.983a.27.27 0 0 0-.355-.223z"/>
                <path d="M1305.496 500.507l.809.587-10.73 14.768-.809-.588zM1306.18 507.354l.809.588-4.686 6.45-.81-.588zM1360.53 540.491l.81.588-10.73 14.768-.81-.588zM1353.813 541.962l.809.588-4.686 6.45-.809-.589zM1336.034 520.067l.809.588-13.224 18.201-.81-.588zM1339.056 524.89l.809.587-10.73 14.768-.809-.588zM1339.738 531.736l.81.588-4.686 6.45-.81-.588zM1331.299 516.627l.809.588-13.224 18.2-.81-.587zM1325.779 515.243l.809.588-10.73 14.768-.809-.588zM1319.055 516.709l.81.588-4.687 6.45-.809-.589z"/>
            </g>
        </g>
    </g>
</svg>
