<svg xmlns="http://www.w3.org/2000/svg" width="18" height="18" viewBox="0 0 18 18">
    <g fill="none" fill-rule="evenodd">
        <path fill="#FAFBFB" d="M-708-6622H732v7895H-708z"/>
        <path fill="#9B9B9B" fill-rule="nonzero" d="M17.743 10.497v6.624H13.94v-6.18c0-1.553-.55-2.613-1.927-2.613-1.05 0-1.676.714-1.95 1.405-.101.247-.127.59-.127.937v6.451H6.132s.051-10.468 0-11.552h3.804v1.637l-.025.038h.025v-.038c.505-.786 1.408-1.909 3.428-1.909 2.503 0 4.379 1.652 4.379 5.2zM2.153 0C.85 0 0 .862 0 1.996c0 1.108.827 1.997 2.102 1.997h.026c1.326 0 2.151-.888 2.151-1.997C4.254.862 3.454 0 2.153 0zM.226 17.121h3.803V5.57H.226V17.12z"/>
    </g>
</svg>
