<svg xmlns="http://www.w3.org/2000/svg" width="19" height="18" viewBox="0 0 19 18">
    <g fill="none" fill-rule="evenodd">
        <path fill="#FAFBFB" d="M-1253-685H187v7895h-1440z"/>
        <path fill="#FFF" fill-rule="nonzero" d="M18.095 11.333v6.624h-3.803v-6.18c0-1.553-.55-2.613-1.927-2.613-1.05 0-1.676.714-1.95 1.405-.101.247-.127.59-.127.937v6.451H6.484s.051-10.468 0-11.552h3.804v1.637l-.025.038h.025v-.038c.505-.786 1.407-1.909 3.428-1.909 2.502 0 4.379 1.651 4.379 5.2zM2.505.836C1.202.836.351 1.698.351 2.832c0 1.108.826 1.997 2.102 1.997h.025c1.327 0 2.152-.888 2.152-1.997C4.606 1.698 3.806.836 2.504.836zM.577 17.957H4.38V6.405H.578v11.552z" opacity=".591"/>
    </g>
</svg>
