<svg xmlns="http://www.w3.org/2000/svg" width="112" height="34" viewBox="0 0 112 34">
    <g fill="none" fill-rule="evenodd">
        <path fill="#FAFBFB" d="M-970-785H470v7895H-970z"/>
        <g fill="#B7C1CE" fill-rule="nonzero">
            <path d="M104.21 14.919c.028-.02.066-.04.095-.06a13.757 13.757 0 0 0 2.552-2.058c.048-.051.086-.112.124-.173.048-.101.105-.212.152-.314.372-.82.448-1.662.2-2.534-.476-1.692-2.01-2.665-3.543-2.452-.438.06-.847.202-1.228.436a3.766 3.766 0 0 1-2.343.537c-.41-.04-.8-.152-1.18-.325a4.017 4.017 0 0 1-.83-.527c-.019-.02-.038-.03-.076-.05.01.04.02.06.029.08a15.066 15.066 0 0 0 3.019 4.956c.676.74 1.419 1.39 2.229 1.967.352.243.695.466.8.517"/>
            <path d="M108.057 11.422a.202.202 0 0 0 .076-.08c.296-.396.572-.801.829-1.217a15.348 15.348 0 0 0 1.924-4.926c.124-.598.21-1.206.257-1.814.038-.415.057-.83.057-1.246 0-.03 0-.061-.01-.082-.038-.02-.076-.05-.104-.07-.305-.183-.61-.355-.924-.507-.457-.223-.914-.436-1.39-.588A2.907 2.907 0 0 0 107.01.81c-1.686.436-2.762 2.189-2.448 4.003.18 1.004.686 1.784 1.495 2.331.057.04.114.071.162.112.59.385 1.057.902 1.39 1.56.353.68.505 1.42.467 2.2.01.111-.01.253-.019.405"/>
            <path d="M97.21 2.037v.102c0 .577.038 1.145.095 1.712.057.517.143 1.024.247 1.53.02.092.048.173.086.254.657 1.5 2.19 2.29 3.705 1.926 1.152-.274 2.095-1.227 2.419-2.443.086-.334.114-.679.133-1.023a5.28 5.28 0 0 1 .067-.68c.248-1.378 1.114-2.513 2.324-3.05.066-.03.133-.06.21-.081.009 0 .028-.01.018-.02-.19-.071-1.333-.193-2.019-.203a13.088 13.088 0 0 0-4.324.628c-1.038.314-2.019.77-2.961 1.348M53.243 33.37h8.695V19.354c0-2.81 1.467-4.293 3.527-4.293s3.387 1.472 3.387 4.293v14.018h8.695V19.353c0-2.81 1.51-4.293 3.57-4.293 2.061 0 3.388 1.472 3.388 4.293v14.018H93.2V16.442C93.2 10.44 89.996 7 84.732 7c-3.614 0-6.128 1.619-8.285 4.193C75.12 8.517 72.607 7 69.305 7c-3.484 0-5.77 1.956-7.367 4.103v-3.53h-8.695v25.798zm-18.63-15.017c.453-2.81 2.017-4.676 4.304-4.676 2.384 0 3.98 1.81 4.304 4.676h-8.609zM39.65 34c4.941 0 8.371-2.102 10.756-5.25l-4.8-4.147c-1.78 1.81-3.431 2.619-5.492 2.619-2.697 0-4.67-1.428-5.35-4.25h16.57c.042-.617.042-1.292.042-1.854C51.376 13.531 47.44 7 38.884 7c-7.324 0-12.492 5.958-12.492 13.5v.09C26.382 28.604 31.872 34 39.65 34zM.2 33.37h8.695V19.399c0-2.81 1.553-4.338 3.657-4.338 2.06 0 3.484 1.528 3.484 4.338v13.973h8.695V16.498c0-5.867-3.16-9.487-8.425-9.487-3.528 0-5.815 2.046-7.411 4.193v-3.63H.2V33.37z"/>
        </g>
    </g>
</svg>
