<svg xmlns="http://www.w3.org/2000/svg" width="24" height="24" viewBox="0 0 24 24">
    <g fill="#FFF" fill-rule="nonzero">
        <path d="M10.92 13h.154c1.405-.023 2.542-.498 3.381-1.407 1.846-2.001 1.54-5.432 1.506-5.76-.12-2.458-1.329-3.634-2.326-4.183-.743-.41-1.611-.632-2.58-.65h-.081c-.533 0-1.578.083-2.58.632-1.007.549-2.235 1.725-2.355 4.201-.033.328-.34 3.759 1.506 5.76.834.909 1.97 1.384 3.376 1.407zm-3.6-7.051c0-.014.004-.028.004-.037.159-3.307 2.6-3.662 3.645-3.662H11.026c1.295.027 3.496.535 3.645 3.662 0 .013 0 .027.005.037.004.032.34 3.168-1.185 4.819-.604.655-1.41.978-2.47.987h-.047c-1.055-.01-1.866-.332-2.465-.987-1.52-1.642-1.194-4.792-1.19-4.82z"/>
        <path d="M20.999 18.56v-.013c0-.036-.005-.072-.005-.112-.028-.885-.088-2.955-2.095-3.617l-.047-.014c-2.086-.514-3.82-1.676-3.839-1.69a.638.638 0 0 0-.87.148.59.59 0 0 0 .153.84c.079.054 1.92 1.293 4.223 1.865 1.078.371 1.198 1.484 1.23 2.504 0 .04 0 .076.005.111.005.403-.023 1.024-.097 1.382-.75.411-3.686 1.833-8.155 1.833-4.45 0-7.405-1.426-8.16-1.837-.073-.358-.106-.98-.096-1.382 0-.036.004-.072.004-.112.033-1.02.153-2.132 1.23-2.504 2.304-.572 4.145-1.815 4.224-1.864a.59.59 0 0 0 .152-.84.638.638 0 0 0-.87-.148c-.018.013-1.743 1.176-3.838 1.69-.019.004-.033.009-.047.013-2.007.667-2.067 2.737-2.095 3.617 0 .04 0 .076-.005.112v.014c-.004.232-.009 1.426.236 2.025.046.116.13.215.24.282.14.09 3.465 2.137 9.03 2.137 5.565 0 8.89-2.052 9.03-2.137a.603.603 0 0 0 .24-.282c.231-.595.226-1.788.222-2.02z"/>
    </g>
</svg>
