<svg xmlns="http://www.w3.org/2000/svg" width="23" height="18" viewBox="0 0 23 18">
    <g fill="none" fill-rule="evenodd">
        <path fill="#FAFBFB" d="M-1283-4309H157v7895h-1440z"/>
        <path fill="#316FDF" d="M22.911 9.406c-.05.129-.124.25-.228.356L14.731 17.7a1.02 1.02 0 1 1-1.446-1.442L19.552 10H1a1 1 0 1 1 0-1.997h18.556l-6.271-6.26a1.02 1.02 0 0 1 0-1.444 1.024 1.024 0 0 1 1.446 0l7.952 7.939c.106.106.179.23.229.361a.986.986 0 0 1 .088.403c0 .145-.034.28-.089.404z"/>
    </g>
</svg>
