<svg xmlns="http://www.w3.org/2000/svg" width="18" height="16" viewBox="0 0 18 16">
    <g fill="none" fill-rule="evenodd">
        <path fill="#FAFBFB" d="M-1287-688H153v7895h-1440z"/>
        <path fill="#FFF" fill-rule="nonzero" d="M.57 7.426L4.66 8.963 6.24 14.09c.102.328.5.45.765.232l2.279-1.871a.676.676 0 0 1 .828-.024l4.11 3.006a.48.48 0 0 0 .756-.293L17.989.55a.483.483 0 0 0-.645-.552L.566 6.518a.487.487 0 0 0 .004.908zm5.416.719l7.99-4.957c.144-.089.292.107.168.222L7.55 9.584a1.38 1.38 0 0 0-.423.824l-.225 1.677c-.03.224-.342.246-.403.03l-.864-3.058a.813.813 0 0 1 .351-.912z" opacity=".591"/>
    </g>
</svg>
