<svg xmlns="http://www.w3.org/2000/svg" width="19" height="16" viewBox="0 0 19 16">
    <g fill="none" fill-rule="evenodd">
        <path fill="#FAFBFB" d="M-1218-688H222v7895h-1440z"/>
        <path fill="#FFF" fill-rule="nonzero" d="M18.19 2.396a7.218 7.218 0 0 1-2.09.578 3.682 3.682 0 0 0 1.6-2.03 7.298 7.298 0 0 1-2.313.891A3.614 3.614 0 0 0 12.73.675c-2.01 0-3.64 1.644-3.64 3.672 0 .287.032.568.094.837a10.303 10.303 0 0 1-7.501-3.838 3.67 3.67 0 0 0-.492 1.846A3.68 3.68 0 0 0 2.809 6.25a3.615 3.615 0 0 1-1.648-.461v.046A3.668 3.668 0 0 0 4.08 9.435a3.655 3.655 0 0 1-.96.129c-.234 0-.461-.024-.684-.068a3.646 3.646 0 0 0 3.399 2.55 7.26 7.26 0 0 1-4.52 1.57c-.294 0-.583-.018-.868-.05a10.221 10.221 0 0 0 5.579 1.652c6.695 0 10.355-5.596 10.355-10.45l-.012-.475a7.305 7.305 0 0 0 1.82-1.897z" opacity=".591"/>
    </g>
</svg>
